<svg xmlns="http://www.w3.org/2000/svg" style="display: none;">
  <symbol id="nc-person" viewBox="0 0 24 24">
    <g class="nc-icon-wrapper">
      <path d="M0 0h24v24H0z" fill="none"/>
      <path d="M12 2c-4.97 0-9 4.03-9 9 0 4.17 2.84 7.67 6.69 8.69L12 22l2.31-2.31C18.16 18.67 21 15.17 21 11c0-4.97-4.03-9-9-9zm0 2c1.66 0 3 1.34 3 3s-1.34 3-3 3-3-1.34-3-3 1.34-3 3-3zm0 14.3c-2.5 0-4.71-1.28-6-3.22.03-1.99 4-3.08 6-3.08 1.99 0 5.97 1.09 6 3.08-1.29 1.94-3.5 3.22-6 3.22z"/>
    </g>
  </symbol>
  <symbol id="nc-search" viewBox="0 0 24 24">
    <g class="nc-icon-wrapper">
      <path d="M0 0h24v24H0z" fill="none"/>
      <path d="M15.5 14h-.79l-.28-.27C15.41 12.59 16 11.11 16 9.5 16 5.91 13.09 3 9.5 3S3 5.91 3 9.5 5.91 16 9.5 16c1.61 0 3.09-.59 4.23-1.57l.27.28v.79l5 4.99L20.49 19l-4.99-5zm-6 0C7.01 14 5 11.99 5 9.5S7.01 5 9.5 5 14 7.01 14 9.5 11.99 14 9.5 14z"/>
    </g>
  </symbol>
  <symbol id="nc-shop-cart" viewBox="0 0 24 24">
    <g class="nc-icon-wrapper">
      <path d="M0 0h24v24H0z" fill="none"/>
      <path d="M17.21 9l-4.38-6.56c-.19-.28-.51-.42-.83-.42-.32 0-.64.14-.83.43L6.79 9H2c-.55 0-1 .45-1 1 0 .09.01.18.04.27l2.54 9.27c.23.84 1 1.46 1.92 1.46h13c.92 0 1.69-.62 1.93-1.46l2.54-9.27L23 10c0-.55-.45-1-1-1h-4.79zM9 9l3-4.4L15 9H9zm3 8c-1.1 0-2-.9-2-2s.9-2 2-2 2 .9 2 2-.9 2-2 2z"/>
    </g>
  </symbol>
</svg>




